<svg id="Capa_1" enable-background="new 0 0 512 512" height="512" viewBox="0 0 512 512" width="512" xmlns="http://www.w3.org/2000/svg"><g><g><path d="m392 375.987v90c0 8.28-6.72 15-15 15s-15-6.72-15-15v-90c0-8.28 6.72-15 15-15s15 6.72 15 15z" fill="#6aa9ff"/></g><path d="m392 375.987v90c0 8.28-6.72 15-15 15v-120c8.28 0 15 6.72 15 15z" fill="#4895ff"/><g><path d="m377 60.987c-41.36 0-75 33.65-75 75v120c0 41.35 33.64 75 75 75s75-33.65 75-75v-120c0-41.35-33.64-75-75-75z" fill="#dfe7f4"/></g><path d="m452 135.987v120c0 41.35-33.64 75-75 75v-270c41.36 0 75 33.65 75 75z" fill="#c7cfe1"/><g><path d="m512 195.987v60c0 74.44-60.56 135-135 135s-135-60.56-135-135v-60c0-8.28 6.72-15 15-15s15 6.72 15 15v60c0 57.9 47.1 105 105 105s105-47.1 105-105v-60c0-8.28 6.72-15 15-15s15 6.72 15 15z" fill="#7ed8f6"/></g><path d="m512 195.987v60c0 74.44-60.56 135-135 135v-30c57.9 0 105-47.1 105-105v-60c0-8.28 6.72-15 15-15s15 6.72 15 15z" fill="#6aa9ff"/><g><path d="m452 465.987c0 8.28-6.72 15-15 15h-120c-8.28 0-15-6.72-15-15s6.72-15 15-15h120c8.28 0 15 6.72 15 15z" fill="#7ed8f6"/></g><path d="m452 465.987c0 8.28-6.72 15-15 15h-60v-30h60c8.28 0 15 6.72 15 15z" fill="#6aa9ff"/><g><path d="m272 135.987c0 8.28-6.72 15-15 15h-31c-5.68 0-10.88-3.21-13.42-8.29l-15.06-30.13-47.59 118.99c-2.53 6.32-8.24 9.43-13.93 9.42-5.99-.01-11.96-3.46-14.23-10.25l-45.77-137.31-15.77 47.31c-2.04 6.13-7.77 10.26-14.23 10.26h-31c-8.28 0-15-6.72-15-15s6.72-15 15-15h20.19l26.58-79.74c4.54-13.63 23.91-13.66 28.46 0l45.77 137.31 1.28 3.84 44.79-111.98c4.8-12 21.57-12.68 27.35-1.14l25.85 51.71h21.73c8.28 0 15 6.72 15 15z" fill="#fed843"/></g><path d="m272 135.987c0 8.28-6.72 15-15 15h-31c-5.68 0-10.88-3.21-13.42-8.29l-15.06-30.13-47.59 118.99c-2.53 6.32-8.24 9.43-13.93 9.42v-62.42l1.28 3.84 44.79-111.98c4.8-12 21.57-12.68 27.35-1.14l25.85 51.71h21.73c8.28 0 15 6.72 15 15z" fill="#fabe2c"/></g></svg>